<svg width="20" height="22" viewBox="0 0 20 22" fill="none" xmlns="http://www.w3.org/2000/svg">
<path d="M19.1064 15.3392L17.0594 11.5599V7.625C17.0594 3.69627 13.8631 0.5 9.93436 0.5C6.00562 0.5 2.80936 3.69627 2.80936 7.625V11.5599L0.762231 15.3391C0.669396 15.5105 0.622672 15.703 0.626637 15.8979C0.630602 16.0927 0.68512 16.2832 0.78485 16.4507C0.884579 16.6181 1.0261 16.7568 1.19554 16.8531C1.36499 16.9494 1.55654 17 1.75143 17H5.82651C5.81515 17.1247 5.80941 17.2498 5.80931 17.375C5.80931 18.469 6.24391 19.5182 7.01749 20.2918C7.79108 21.0654 8.84029 21.5 9.93431 21.5C11.0283 21.5 12.0775 21.0654 12.8511 20.2918C13.6247 19.5182 14.0593 18.469 14.0593 17.375C14.0593 17.2484 14.0533 17.1236 14.0421 17H18.1172C18.3121 17 18.5036 16.9493 18.673 16.853C18.8424 16.7567 18.9839 16.6181 19.0836 16.4506C19.1833 16.2832 19.2379 16.0927 19.2418 15.8979C19.2458 15.7031 19.1991 15.5105 19.1062 15.3392H19.1064ZM12.5594 17.375C12.5597 17.7357 12.4856 18.0927 12.3418 18.4235C12.198 18.7543 11.9876 19.052 11.7236 19.2979C11.4596 19.5438 11.1478 19.7326 10.8076 19.8526C10.4675 19.9726 10.1062 20.0212 9.74636 19.9954C9.38655 19.9696 9.03592 19.8698 8.71637 19.7025C8.39681 19.5351 8.11519 19.3036 7.88906 19.0226C7.66294 18.7415 7.49718 18.4168 7.40213 18.0688C7.30707 17.7208 7.28476 17.357 7.33659 17H12.5321C12.5501 17.1242 12.5592 17.2495 12.5594 17.375ZM2.38101 15.5L4.30936 11.9401V7.625C4.30936 6.13316 4.90199 4.70242 5.95688 3.64752C7.01177 2.59263 8.44251 2 9.93436 2C11.4262 2 12.8569 2.59263 13.9118 3.64752C14.9667 4.70242 15.5594 6.13316 15.5594 7.625V11.9401L17.4876 15.5H2.38101Z" fill="#757575"/>
</svg>
