<svg width="20" height="20" viewBox="0 0 20 20" fill="none" xmlns="http://www.w3.org/2000/svg">
<path d="M5.72 14.456L7.481 13.948L18.084 3.218C18.1676 3.1323 18.2142 3.01713 18.2136 2.89738C18.2131 2.77764 18.1654 2.66291 18.081 2.578L17.446 1.936C17.405 1.89384 17.3559 1.86027 17.3018 1.83726C17.2477 1.81424 17.1895 1.80225 17.1306 1.80197C17.0718 1.80169 17.0135 1.81313 16.9591 1.83563C16.9048 1.85813 16.8554 1.89123 16.814 1.933L6.239 12.635L5.719 14.455L5.72 14.456ZM18.703 0.663999L19.338 1.307C20.214 2.194 20.222 3.625 19.354 4.503L8.428 15.561L4.664 16.645C4.4342 16.7093 4.18826 16.6798 3.98016 16.5631C3.77206 16.4463 3.6188 16.2517 3.554 16.022C3.50578 15.8569 3.50509 15.6815 3.552 15.516L4.647 11.676L15.544 0.646999C15.7512 0.438357 15.9979 0.273061 16.2696 0.160751C16.5414 0.0484419 16.8328 -0.00863254 17.1269 -0.00714322C17.4209 -0.00565389 17.7117 0.0543694 17.9823 0.169426C18.2529 0.284482 18.4979 0.452269 18.703 0.662999V0.663999ZM7.184 1.817C7.68 1.817 8.082 2.224 8.082 2.726C8.08279 2.84467 8.06018 2.96233 8.01547 3.07225C7.97076 3.18218 7.90481 3.28221 7.82141 3.36663C7.73801 3.45105 7.63879 3.51821 7.52942 3.56426C7.42004 3.61031 7.30267 3.63434 7.184 3.635H3.592C2.6 3.635 1.796 4.449 1.796 5.452V16.358C1.796 17.362 2.6 18.176 3.592 18.176H14.368C15.36 18.176 16.165 17.362 16.165 16.358V12.723C16.165 12.221 16.567 11.814 17.063 11.814C17.559 11.814 17.961 12.221 17.961 12.724V16.358C17.961 18.366 16.352 19.994 14.368 19.994H3.592C1.608 19.994 0 18.366 0 16.358V5.452C0 3.445 1.608 1.817 3.592 1.817H7.184Z" fill="#757575"/>
</svg>
