<svg width="16" height="20" viewBox="0 0 16 20" fill="none" xmlns="http://www.w3.org/2000/svg">
<path d="M3.19999 0.400002H12.8C13.4365 0.400002 14.047 0.652858 14.497 1.10295C14.9471 1.55303 15.2 2.16348 15.2 2.8V17.2C15.2 17.8365 14.9471 18.447 14.497 18.8971C14.047 19.3471 13.4365 19.6 12.8 19.6H3.19999C2.56347 19.6 1.95302 19.3471 1.50293 18.8971C1.05284 18.447 0.799988 17.8365 0.799988 17.2V2.8C0.799988 2.16348 1.05284 1.55303 1.50293 1.10295C1.95302 0.652858 2.56347 0.400002 3.19999 0.400002ZM3.19999 1.6C2.88173 1.6 2.5765 1.72643 2.35146 1.95147C2.12642 2.17652 1.99999 2.48174 1.99999 2.8V17.2C1.99999 17.5183 2.12642 17.8235 2.35146 18.0485C2.5765 18.2736 2.88173 18.4 3.19999 18.4H12.8C13.1182 18.4 13.4235 18.2736 13.6485 18.0485C13.8736 17.8235 14 17.5183 14 17.2V2.8C14 2.48174 13.8736 2.17652 13.6485 1.95147C13.4235 1.72643 13.1182 1.6 12.8 1.6H3.19999ZM11.6 5.8C11.6 5.94043 11.5508 6.07643 11.4609 6.18431C11.371 6.29219 11.2461 6.36512 11.108 6.3904L11 6.4H4.99999C4.85005 6.40028 4.70545 6.34441 4.59465 6.24339C4.48385 6.14238 4.41489 6.00354 4.40134 5.85422C4.38779 5.70489 4.43064 5.55591 4.52145 5.4366C4.61226 5.3173 4.74445 5.23631 4.89199 5.2096L4.99999 5.2H11C11.1591 5.2 11.3117 5.26322 11.4243 5.37574C11.5368 5.48826 11.6 5.64087 11.6 5.8ZM11.6 10C11.6 10.1404 11.5508 10.2764 11.4609 10.3843C11.371 10.4922 11.2461 10.5651 11.108 10.5904L11 10.6H4.99999C4.85005 10.6003 4.70545 10.5444 4.59465 10.4434C4.48385 10.3424 4.41489 10.2035 4.40134 10.0542C4.38779 9.90489 4.43064 9.75591 4.52145 9.6366C4.61226 9.5173 4.74445 9.43631 4.89199 9.4096L4.99999 9.4H11C11.1591 9.4 11.3117 9.46322 11.4243 9.57574C11.5368 9.68826 11.6 9.84087 11.6 10ZM11.6 14.2C11.6 14.3404 11.5508 14.4764 11.4609 14.5843C11.371 14.6922 11.2461 14.7651 11.108 14.7904L11 14.8H4.99999C4.85005 14.8003 4.70545 14.7444 4.59465 14.6434C4.48385 14.5424 4.41489 14.4035 4.40134 14.2542C4.38779 14.1049 4.43064 13.9559 4.52145 13.8366C4.61226 13.7173 4.74445 13.6363 4.89199 13.6096L4.99999 13.6H11C11.1591 13.6 11.3117 13.6632 11.4243 13.7757C11.5368 13.8883 11.6 14.0409 11.6 14.2Z" fill="#757575"/>
</svg>
