<svg width="16" height="20" viewBox="0 0 16 20" fill="none" xmlns="http://www.w3.org/2000/svg">
<path d="M3.52159 1.59999C3.73223 1.23516 4.03519 0.932192 4.40002 0.721548C4.76486 0.510905 5.17871 0.400005 5.59999 0.399994H11C12.1139 0.399994 13.1822 0.842493 13.9698 1.63015C14.7575 2.4178 15.2 3.48608 15.2 4.59999V16.6C15.1999 16.7085 15.1704 16.815 15.1147 16.9081C15.0589 17.0012 14.9789 17.0774 14.8832 17.1286C14.7875 17.1799 14.6797 17.2042 14.5713 17.199C14.4629 17.1938 14.3579 17.1593 14.2676 17.0992L14 16.9216V4.59999C14 3.80434 13.6839 3.04128 13.1213 2.47867C12.5587 1.91606 11.7956 1.59999 11 1.59999H3.52159ZM3.19999 2.79999C2.56347 2.79999 1.95302 3.05285 1.50293 3.50294C1.05284 3.95302 0.799988 4.56347 0.799988 5.19999V19C0.800044 19.1085 0.829537 19.215 0.885325 19.3081C0.941113 19.4012 1.02111 19.4774 1.11679 19.5286C1.21247 19.5799 1.32025 19.6042 1.42866 19.599C1.53706 19.5938 1.64203 19.5593 1.73239 19.4992L6.79999 16.1212L11.8676 19.4992C11.9579 19.5593 12.0629 19.5938 12.1713 19.599C12.2797 19.6042 12.3875 19.5799 12.4832 19.5286C12.5789 19.4774 12.6589 19.4012 12.7147 19.3081C12.7704 19.215 12.7999 19.1085 12.8 19V5.19999C12.8 4.56347 12.5471 3.95302 12.097 3.50294C11.647 3.05285 11.0365 2.79999 10.4 2.79999H3.19999ZM1.99999 5.19999C1.99999 4.88173 2.12642 4.57651 2.35146 4.35147C2.5765 4.12642 2.88173 3.99999 3.19999 3.99999H10.4C10.7182 3.99999 11.0235 4.12642 11.2485 4.35147C11.4736 4.57651 11.6 4.88173 11.6 5.19999V17.8792L7.13239 14.9008C7.03392 14.8353 6.91827 14.8003 6.79999 14.8003C6.6817 14.8003 6.56606 14.8353 6.46759 14.9008L1.99999 17.8792V5.19999Z" fill="#757575"/>
</svg>
