<svg width="19" height="21" viewBox="0 0 19 21" fill="none" xmlns="http://www.w3.org/2000/svg">
<path d="M18.8 5.6C18.8 7.03217 18.2311 8.40568 17.2184 9.41837C16.2057 10.4311 14.8322 11 13.4 11C11.9678 11 10.5943 10.4311 9.58162 9.41837C8.56893 8.40568 8 7.03217 8 5.6C8 4.16783 8.56893 2.79432 9.58162 1.78162C10.5943 0.768924 11.9678 0.199997 13.4 0.199997C14.8322 0.199997 16.2057 0.768924 17.2184 1.78162C18.2311 2.79432 18.8 4.16783 18.8 5.6ZM14 3.2C14 3.04087 13.9368 2.88825 13.8243 2.77573C13.7117 2.66321 13.5591 2.6 13.4 2.6C13.2409 2.6 13.0883 2.66321 12.9757 2.77573C12.8632 2.88825 12.8 3.04087 12.8 3.2V5H11C10.8409 5 10.6883 5.06321 10.5757 5.17573C10.4632 5.28826 10.4 5.44087 10.4 5.6C10.4 5.75913 10.4632 5.91174 10.5757 6.02426C10.6883 6.13678 10.8409 6.2 11 6.2H12.8V8C12.8 8.15913 12.8632 8.31174 12.9757 8.42426C13.0883 8.53678 13.2409 8.6 13.4 8.6C13.5591 8.6 13.7117 8.53678 13.8243 8.42426C13.9368 8.31174 14 8.15913 14 8V6.2H15.8C15.9591 6.2 16.1117 6.13678 16.2243 6.02426C16.3368 5.91174 16.4 5.75913 16.4 5.6C16.4 5.44087 16.3368 5.28826 16.2243 5.17573C16.1117 5.06321 15.9591 5 15.8 5H14V3.2ZM14 18.8216V12.1736C14.406 12.1369 14.8077 12.0626 15.2 11.9516V20C15.1999 20.1106 15.1692 20.2191 15.1114 20.3133C15.0535 20.4076 14.9707 20.4841 14.8721 20.5342C14.7735 20.5844 14.663 20.6063 14.5527 20.5976C14.4424 20.5889 14.3367 20.5498 14.2472 20.4848L8 15.9416L1.7528 20.4848C1.66332 20.5498 1.5576 20.5889 1.44732 20.5976C1.33704 20.6063 1.2265 20.5844 1.12791 20.5342C1.02931 20.4841 0.946506 20.4076 0.888638 20.3133C0.830771 20.2191 0.800094 20.1106 0.799999 20V4.4C0.799999 3.60435 1.11607 2.84129 1.67868 2.27868C2.24129 1.71607 3.00435 1.4 3.8 1.4H8.3084C8.00277 1.77016 7.73841 2.17254 7.52 2.6H3.8C3.32261 2.6 2.86477 2.78964 2.52721 3.1272C2.18964 3.46477 2 3.92261 2 4.4V18.8216L7.6472 14.7152C7.74973 14.6407 7.87324 14.6005 8 14.6005C8.12676 14.6005 8.25027 14.6407 8.3528 14.7152L14 18.8216Z" fill="black" fill-opacity="0.5"/>
</svg>
